<svg width="1152" height="1153" viewBox="0 0 1152 1153" fill="none" xmlns="http://www.w3.org/2000/svg">
<path d="M381.5 2.60002C358 4.60002 316.6 10.4 314.4 12.1C313.9 12.6 306 14.8 296.9 17.1C287.9 19.3 278.9 22 277 23C275.1 24 272.6 25.1 271.5 25.3C267.8 26.3 253 31.7 252.3 32.3C252 32.7 250.8 33 249.8 33C248.8 33 248 33.4 248 34C248 34.5 247.1 35 246.1 35C245 35 244 35.3 243.8 35.7C243.4 36.8 235.1 41 233.4 41C232.6 41 232 41.4 232 42C232 42.5 231.5 43 230.9 43C230.3 43 227.9 44.3 225.6 45.8C223.4 47.3 218.5 50.1 214.8 52C211 53.8 208 55.7 208 56.2C208 56.6 207.4 57 206.7 57C204.9 57 200 59.4 200 60.2C200 60.7 199.4 61 198.7 61C196.9 61 192 63.4 192 64.2C192 64.7 191.1 65 190 65C188.9 65 188 65.4 188 65.8C188 66.3 186.8 67.2 185.4 67.9C181.8 69.5 172.7 76.6 159.4 88C153.3 93.2 143.2 101.5 137 106.5C125.2 115.8 115.7 124.7 110.5 131.4C108.9 133.5 106.7 136.2 105.8 137.4C104.8 138.5 103.7 139.9 103.3 140.5C100.4 144.1 93.1 152.9 90.8 155.5C89.2 157.1 88 158.8 88 159.2C88 159.5 85.5 162.4 82.5 165.7C79.5 168.9 77 171.9 77 172.3C77 172.7 75.9 174.1 74.5 175.4C73.1 176.7 72 178.2 72 178.9C72 179.5 70.7 181.3 69 182.8C67.4 184.4 66 186.5 66 187.4C66 188.3 65.6 189 65 189C64.5 189 64 189.6 64 190.3C64 192.1 61.6 197 60.8 197C60.3 197 60 197.9 60 199C60 200.1 59.7 201 59.3 201C58.4 201 56 205.8 56 207.6C56 208.2 55.1 209 54 209.3C52.5 209.7 52 210.7 52 213.2C52 215.4 51.4 216.9 50 217.8C48.7 218.6 48 220.1 48 222C48 224.3 47.6 225 46 225C44.9 225 44 225.6 44 226.3C44 227.1 43.4 229 42.6 230.6C41.8 232.2 40.4 235.2 39.5 237.2C38.5 239.3 37.4 241 36.9 241C36.4 241 36 241.9 36 243C36 244.1 35.6 245 35.2 245C34.7 245 33.7 246.9 33 249.2C32.2 251.6 31.3 253.9 31 254.5C30.6 255 29.7 257.6 28.9 260.2C28.2 262.9 27.3 265 26.9 265C26.6 265 25.7 267.1 25.1 269.7C24.4 272.4 23.4 275.3 22.9 276.3C20.8 280.2 18.1 289 16 298.5C14.8 304 13 310.3 12 312.6C11 314.8 9.69999 320.2 8.99999 324.6C8.39999 328.9 6.69999 339.4 5.39999 347.8C0.699989 376.9 0.699989 374 0.299989 567.7C-0.100011 763.2 0.0999893 773.7 4.49999 800.5C5.29999 805.4 6.69999 814.4 7.49999 820.5C8.89999 830.4 9.79999 834.3 14.5 850C15.2 852.5 16.1 856.3 16.5 858.5C17.7 865.6 21.9 877 23.2 877C23.7 877 24 878.4 24 880.2C24 881.9 24.8 885.2 25.9 887.4C26.9 889.7 29 894.6 30.5 898.5C34.1 907.6 36.3 912.4 37 913C38 913.9 44 926.3 44 927.4C44 928 44.9 929.1 46 929.8C47.1 930.5 48 932.1 48 933.4C48 935 48.7 936.1 50 936.5C51.4 936.9 52 938 52 940.1C52 941.9 52.7 943.4 54 944.2C55.1 944.9 56 946.4 56 947.6C56 948.7 56.9 950.6 58 951.8C59.1 953 60 954.6 60 955.5C60 956.3 60.5 957 61 957C61.6 957 62 957.9 62 959C62 960.1 62.5 961 63 961C63.6 961 64 961.9 64 963C64 964.1 64.5 965 65 965C65.6 965 66 965.7 66 966.6C66 967.5 67.4 969.6 69 971.2C70.7 972.7 72 974.7 72 975.5C72 976.3 72.4 977 72.8 977C73.2 977 74.3 978.2 75.2 979.7C76.1 981.3 78.8 984.5 81.1 987C83.4 989.5 86.4 993.1 87.9 995C89.3 996.9 90.7 998.7 91 999C91.3 999.3 94 1002.4 97 1006C100 1009.6 102.7 1012.7 103 1013C103.3 1013.3 105.7 1016.2 108.2 1019.5C115.5 1029 127.8 1041.2 136 1047C137.8 1048.4 140.9 1051 142.7 1052.7C144.6 1054.5 146.5 1056 147 1056C147.5 1056 150 1058 152.4 1060.5C154.9 1063 157.4 1065 157.9 1065C158.5 1065 160.6 1066.7 162.7 1068.8C164.8 1070.8 168.5 1074.1 171 1076C173.5 1077.9 176.9 1080.7 178.5 1082.2C180.2 1083.7 182.1 1085 182.8 1085C183.4 1085 184 1085.4 184 1086C184 1086.5 184.9 1087 186 1087C187.1 1087 188 1087.4 188 1088C188 1088.5 188.6 1089 189.4 1089C190.8 1089 199.1 1093 200 1094.1C200.5 1094.7 211.6 1100.7 230.5 1110.6C234.4 1112.6 238.6 1115 240 1116C242.3 1117.7 270 1129 271.6 1129C272.1 1129 276.5 1130.5 281.5 1132.4C286.4 1134.3 294.9 1136.8 300.3 1137.9C305.8 1139.1 311 1140.5 312 1141C314.7 1142.4 320.7 1143.6 342.5 1147C383.2 1153.2 376.6 1153 571.6 1153C688.3 1153 755.2 1152.6 765.6 1151.9C790.5 1150.2 824.4 1144.8 849.4 1138.6C861.4 1135.5 872.8 1132.2 874.7 1131C876.6 1129.9 879 1129 880 1129C881.1 1129 884.4 1127.9 887.4 1126.5C890.4 1125.1 893.2 1124 893.5 1124C895 1124 908.5 1117.6 918.2 1112.4C936.4 1102.5 943.4 1098.7 947.5 1096.7C949.7 1095.6 951.7 1094.4 951.8 1093.9C952 1093.4 953 1093 954.1 1093C955.1 1093 956 1092.7 956 1092.2C956 1091.8 957.5 1090.9 959.3 1090.2C965.9 1087.4 967.6 1086.5 970.3 1083.8C971.8 1082.2 973.7 1081 974.4 1081C975.2 1081 976 1080.7 976.2 1080.2C976.4 1079.8 978.5 1077.9 981 1076C983.5 1074.1 987.3 1070.8 989.5 1068.8C991.7 1066.7 993.8 1065 994.3 1065C994.7 1065 997.1 1063 999.6 1060.5C1002 1058 1004.4 1056 1004.8 1056C1005.2 1056 1007.3 1054.4 1009.3 1052.5C1011.3 1050.6 1013.4 1049 1014 1049C1014.5 1049 1015.4 1048.1 1016 1047C1016.6 1045.9 1017.5 1045 1018 1045C1019.9 1045 1034.8 1030.9 1041 1023.2C1042.9 1020.8 1045.3 1018.1 1046.3 1017.2C1047.2 1016.3 1048 1015.2 1048 1014.8C1048 1014.3 1050 1011.9 1052.5 1009.2C1055 1006.6 1057 1004.2 1057 1003.8C1057 1003.4 1058.6 1001.5 1060.5 999.6C1062.4 997.6 1064 995.6 1064 995.1C1064 994.5 1065.7 992.4 1067.8 990.3C1069.9 988.2 1072.7 984.9 1074 983C1075.3 981.1 1077.2 978.8 1078.2 977.9C1079.2 977 1080 975.9 1080 975.4C1080 974.9 1081.4 973.1 1083 971.3C1084.7 969.5 1086 967.4 1086 966.6C1086 965.7 1086.5 965 1087 965C1087.6 965 1088 964.1 1088 963C1088 961.9 1088.5 961 1089 961C1089.6 961 1090 960.1 1090 959C1090 957.9 1090.5 957 1091 957C1091.6 957 1092 956.3 1092 955.5C1092 954.6 1092.9 953 1094 951.8C1095.1 950.6 1096 948.7 1096 947.6C1096 946.4 1096.9 944.9 1098 944.2C1099.1 943.5 1100 941.9 1100 940.5C1100 939.1 1100.8 937.6 1102 937C1103.1 936.4 1104 934.9 1104 933.5C1104 932.2 1104.8 930.5 1105.8 929.8C1106.8 929.1 1108 927.3 1108.3 925.8C1108.7 924.3 1109.6 922.5 1110.3 921.8C1111.1 921.1 1112 919.3 1112.3 917.8C1112.7 916.3 1113.7 914.5 1114.5 913.6C1115.3 912.8 1116 911.4 1116 910.6C1116 909.7 1116.5 909 1117 909C1117.6 909 1118 908.1 1118 907C1118 905.9 1118.5 905 1119 905C1119.6 905 1120 904.4 1120 903.6C1120 902.2 1122.7 894.9 1126.1 887.3C1127.2 884.9 1128 882.4 1128 881.7C1128 881 1129.4 877.2 1131 873.2C1132.7 869.2 1135.2 860.8 1136.5 854.4C1137.9 848.1 1139.5 842 1140.1 840.9C1141.3 838.6 1141.8 835.9 1145.9 809.5C1151.5 774 1151.3 780.3 1151.8 589.5C1152.2 396 1152 385.7 1147 350.5C1142.8 321.3 1142.2 318.4 1139 308.6C1137.3 303.7 1136 298.6 1136 297.4C1136 294.6 1131.8 281.5 1129.6 277.1C1128.7 275.5 1128 273.3 1128 272.4C1128 271.4 1127.1 268.6 1125.9 266.1C1124.8 263.6 1123 259.6 1121.9 257.2C1120.9 254.9 1120 252.4 1120 251.7C1120 249.9 1117.6 245 1116.8 245C1116.3 245 1116 244.3 1116 243.5C1116 242.7 1115.1 241.1 1114 240C1112.9 238.9 1112 236.9 1112 235.5C1112 234.1 1111.6 233 1111.1 233C1110.6 233 1109.5 231.3 1108.7 229.2C1107.9 227.1 1106.5 224.8 1105.6 224.1C1104.7 223.3 1104 222.1 1104 221.3C1104 220.6 1103.1 219 1102 217.8C1100.9 216.6 1100 214.9 1100 214C1100 213.1 1099.2 211.5 1098.2 210.4C1097.2 209.3 1096 207.2 1095.7 205.8C1095.3 204.3 1094.3 202.5 1093.5 201.6C1092.7 200.8 1092 199.4 1092 198.6C1092 197.7 1091.6 197 1091 197C1090.5 197 1090 196.1 1090 195C1090 193.9 1089.6 193 1089 193C1088.5 193 1088 192.3 1088 191.5C1088 190.6 1087.5 189.4 1086.9 188.7C1086 187.6 1084.5 185.3 1080.8 179.5C1080.1 178.4 1079.3 177.3 1079 177C1078.7 176.7 1076.8 174.4 1074.7 171.8C1072.6 169.2 1070.3 166.5 1069.7 165.8C1068.1 164.2 1050.4 142.6 1047 138.1C1038.4 126.9 1020.7 109 1018.1 109C1017.5 109 1016.6 108.1 1016 107C1015.4 105.9 1014.3 105 1013.5 105C1012.8 105 1012 104.7 1011.8 104.2C1011.7 103.8 1009 101.5 1006 99C1003 96.5 1000.3 94.3 1000 94C999.7 93.7 997 91.5 994 89C991 86.5 987.9 84 987.2 83.3C986.5 82.6 983.8 80.4 981.2 78.3C978.6 76.2 976.4 74.2 976.2 73.7C976 73.3 975.3 73 974.6 73C974 73 972.7 72.2 971.8 71.2C968.7 68 963.8 65 961.5 65C960.7 65 960 64.5 960 64C960 63.4 959.1 63 958 63C956.9 63 956 62.5 956 62C956 61.4 955.1 61 954 61C952.9 61 952 60.6 952 60.1C952 59.6 950.3 58.5 948.3 57.6C946.2 56.7 942.3 54.7 939.5 53C936.8 51.4 930.5 48 925.7 45.5C920.9 42.9 914.8 39.6 912.1 38.1C908.2 35.7 896.1 30.8 878 24C869.5 20.8 856.9 17 850 15.5C845.9 14.6 840.7 13.3 838.5 12.6C828.9 9.40002 793.3 4.30002 768 2.50002C739.2 0.40002 406 0.50002 381.5 2.60002ZM595.1 434.5C606.1 436.1 623.3 441.4 636.5 447.2C649.9 453.1 664 462.9 675.6 474.4C723.8 522.3 734.1 585 703.7 644.4C690.5 670.2 667.7 692.1 639.5 705.9C617.7 716.6 605.1 719.7 579 720.6C558.8 721.3 548.4 720 532.3 714.9C505.5 706.3 485.4 692.6 466.6 670C457.9 659.5 452.9 652 446.7 639.4C438 622 434.7 610 433 589.9C427.8 530.9 459.1 475.6 512.7 448.6C539.6 435.1 567.7 430.3 595.1 434.5Z" fill="black"/>
</svg>
