<svg width="746" height="699" viewBox="0 0 746 699" fill="none" xmlns="http://www.w3.org/2000/svg">
<path d="M357 0.899993C342.5 2.99999 324.5 11 312.6 20.5C288.3 39.9 273.4 72.8 277 99.1C280 121.7 289.8 140.9 306.6 157.1C319.2 169.2 333.3 177.3 349.3 181.5L356 183.3V217V250.8L351.3 251.5C332.2 254.3 307.8 264.7 292.5 276.4C280.4 285.7 268.6 298.2 260.2 310.7C257.9 314.1 255.6 317.1 255.2 317.4C254.7 317.7 249.7 316.4 243.9 314.6C238.2 312.7 224 308.2 212.4 304.5L191.3 297.7L190.7 284.6C189.9 265.1 185.8 252.6 174.7 235.9C161.9 216.5 140.4 202 116.4 196.3C105.3 193.8 83.4 193.8 73 196.4C30 207.3 0.1 244 0 286.1C0 311.3 7.8 331.8 24.6 350.6C31.2 358 46.2 369.1 52.8 371.5C54.8 372.2 58.5 373.7 61 374.9C78 382.5 107 383.1 127.2 376.1C146.2 369.6 166.7 353.6 175.3 338.8C176.5 336.7 178 334.9 178.5 334.6C179.1 334.4 187.2 336.7 196.5 339.7C205.9 342.7 220.1 347.3 228.2 349.8L242.8 354.4L242.3 370.4C241.8 384.3 242 388 243.8 397C249.1 423.1 259.7 444.1 277.2 462.6C295.1 481.4 316 493.3 343.5 500.2C351.2 502.1 355 502.4 369.5 502.4C397.9 502.2 417.3 497.1 440.4 483.5C453.2 476 473.2 456.3 482.2 442.4C498.8 416.7 505.8 380.9 500.1 351.3C497.7 338.9 495.4 332 489.5 319.7C476.9 293.3 455.5 272.7 428 260.5C416.2 255.2 408.1 252.6 399.7 251.4L395 250.8L395.2 217.2L395.5 183.7L403.5 181C414.1 177.4 420.9 173.9 430.3 167.2C456.7 148.3 471.4 113.7 466.7 82C461 44.6 433.9 13.6 398 3.49999C390.5 1.39999 385.8 0.699993 375.5 0.499993C368.4 0.299993 360 0.499993 357 0.899993ZM387.5 36.5C407.9 41.8 423.5 57.6 428.6 78C431.8 90.4 429.2 107 422.3 118.7C418.4 125.4 408.4 135 401.4 138.7C380.8 149.6 355.6 147.8 338.2 134.3C322.7 122.3 314.7 104.3 316.4 85.4C317.3 75.8 319.9 68.4 325.5 60C332.9 48.9 343.1 41.4 357 36.9C364.1 34.6 379.4 34.4 387.5 36.5ZM115 234.5C130.2 239.7 141.2 249.3 148 263.5C153.5 275.1 154.9 285 152.6 296.7C150.2 309.2 146 317 137 326C119 344 94.1 347.9 70.2 336.4C56.3 329.7 44.5 315 41.1 300C39.6 293.7 39.8 280.6 41.5 273.6C46.6 252.3 65.6 235.3 88.5 231.6C94.9 230.6 107.7 232 115 234.5ZM397.4 296.7C425 305.4 444.8 324.9 453.5 352C456 359.7 456.3 361.9 456.2 375C456.2 387.7 455.9 390.5 453.6 397.8C445.2 425 424.4 445.2 396.3 453.6C388.6 455.9 385.6 456.2 373 456.3C359.9 456.4 357.6 456.1 349.5 453.6C316.5 443.5 293.7 416.7 290 383.7C285.6 345.6 310.1 308.8 347.5 297C362.3 292.3 383.2 292.2 397.4 296.7Z" fill="black"/>
<path d="M637.5 194.7C624.6 196.7 607.5 203.1 597.3 209.6C570.6 226.7 553.3 259.2 554.1 290.8C554.2 294.8 554.1 298.2 553.9 298.3C553.6 298.6 547.9 300.3 530.3 305.6C529.6 305.8 529 306.7 529 307.7C529 310.8 539.8 341.2 541.1 342.1C541.8 342.5 543.2 342.4 544.2 341.9C545.2 341.4 550.4 339.4 555.7 337.5C566.8 333.7 566.2 333.5 572 342C576.6 348.8 589 360.6 596.5 365.4C613.6 376.4 629.4 381.1 649.5 381.1C663 381.1 673.3 379.1 686.3 373.9C716.6 361.7 737.3 336.6 744 303.6C746.5 291.2 746.5 282.8 744 270.4C740.2 251.4 732.2 236.5 718.5 222.6C700.3 204.1 679.3 195.1 653 194.5C646.1 194.3 639.2 194.4 637.5 194.7ZM663.4 233C682.4 237.8 697.4 251.5 703.5 269.5C707.3 280.8 706.8 298.2 702.3 308.5C692.8 330.4 669.4 344.5 645.6 342.7C630.8 341.5 619.3 336.3 609 326C597.2 314.2 592.5 301.6 593.3 284.5C594.5 258 611.5 238.4 638.5 232.5C647.2 230.6 654.6 230.7 663.4 233Z" fill="black"/>
<path d="M249.9 508C245.4 514 241.5 519 241.2 519C240.9 519 237.4 517.9 233.5 516.5C218 511.2 202 509.8 186.4 512.5C130.2 522.3 95.0005 575.9 109.5 629.5C121 672.1 162.5 701.3 207.5 698.7C244.3 696.5 276.6 673.9 290.7 640.6C301 616.3 300.2 589.7 288.6 565.5C286.2 560.5 281.8 553.2 278.7 549.1L273 541.7L276.7 536.6C278.7 533.8 282.4 528.8 284.9 525.6L289.4 519.7L286.4 517.3C284.8 516 281.7 513.7 279.5 512.2C277.3 510.7 271.6 506.7 266.7 503.2L258 497L249.9 508ZM215.5 551.2C224.7 553.1 234.9 558.9 242.5 566.5C254.6 578.6 259.8 592.4 258.7 609.1C256.4 640.4 230.3 662.7 198.2 660.7C182.6 659.7 171.7 654.8 160.8 643.9C149.3 632.4 144.3 618.8 145.3 602C146.2 587.2 152.1 574.7 162.7 565C177.3 551.6 195.1 546.9 215.5 551.2Z" fill="black"/>
<path d="M473.5 508.1C465.8 513.6 458.9 518.7 458.2 519.4C457.2 520.4 458.5 522.7 465 531.4L473.1 542.1L471.4 544.8C470.5 546.3 468.7 548.6 467.4 550C463.2 554.6 456.1 568.2 452.9 577.9C450.1 586.3 449.7 589.3 449.2 601.6C448.7 617.6 450 625.7 455.1 639.4C465.6 667.1 490.9 688.5 522.4 696.6C531.7 699 533.7 699.2 547.5 698.7C561.4 698.3 563.3 698 573.5 694.6C598.6 686.2 618.3 669.3 629.9 646.2C652 602.2 634.7 548 591 524.2C566.2 510.7 537 508.2 512.7 517.4C509 518.8 505.6 520 505.2 520C504.8 520 500.9 515 496.5 509C492.1 502.9 488.3 498 488 498.1C487.7 498.1 481.2 502.6 473.5 508.1ZM552.7 550.5C572.1 552.7 591.2 567.7 597.9 586.2C600.7 593.8 601.3 597.4 601.2 606.4C600.8 629.7 586.6 649.2 563.4 658C555.1 661.1 539 661.9 530.1 659.5C514.8 655.5 501.8 645.5 494.1 631.9C478.5 604 490.9 567.7 520.7 554.5C527.9 551.3 539.9 548.9 545.5 549.6C546.6 549.8 549.8 550.1 552.7 550.5Z" fill="black"/>
</svg>
