<svg width="1152" height="1152" viewBox="0 0 1152 1152" fill="none" xmlns="http://www.w3.org/2000/svg">
<path d="M381 1.59993C361.5 3.29993 316.1 9.59993 314.5 10.9999C313.9 11.4999 306 13.7999 296.9 16.0999C287.9 18.3999 279.4 20.7999 278 21.4999C275.4 22.7999 267.3 25.8999 259 28.5999C256.5 29.3999 253.7 30.4999 252.8 30.9999C251.8 31.5999 250.3 31.9999 249.5 31.9999C248.7 31.9999 248 32.3999 248 32.9999C248 33.4999 247.1 33.9999 246.1 33.9999C245 33.9999 244 34.2999 243.8 34.6999C243.4 35.7999 235.1 39.9999 233.5 39.9999C232.8 39.9999 232 40.2999 231.8 40.6999C231.7 41.1999 229.7 42.4999 227.5 43.6999C225.3 44.9999 223.6 46.2999 223.7 46.7999C223.8 47.2999 223.3 47.6999 222.6 47.6999C220.7 47.6999 208 54.1999 208 55.1999C208 55.5999 207.4 55.9999 206.7 55.9999C204.9 55.9999 200 58.3999 200 59.1999C200 59.6999 199.4 59.9999 198.7 59.9999C196.9 59.9999 192 62.3999 192 63.1999C192 63.6999 191.1 63.9999 190 63.9999C188.9 63.9999 188 64.3999 188 64.7999C188 65.2999 186.8 66.1999 185.4 66.8999C181.8 68.4999 172.7 75.5999 159.4 86.9999C153.3 92.1999 143.2 100.5 137 105.5C125.2 114.8 115.7 123.7 110.5 130.4C108.9 132.5 106.7 135.2 105.8 136.4C104.8 137.5 103.7 138.9 103.3 139.5C100.4 143.1 93.1 151.9 90.8 154.5C89.2 156.1 88 157.8 88 158.2C88 158.5 85.5 161.4 82.5 164.7C79.5 167.9 77 170.9 77 171.3C77 171.7 75.9 173.1 74.5 174.4C73.1 175.7 72 177.2 72 177.9C72 178.5 70.7 180.3 69 181.8C67.4 183.4 66 185.5 66 186.4C66 187.3 65.6 188 65 188C64.5 188 64 188.6 64 189.3C64 191.1 61.6 196 60.8 196C60.3 196 60 196.9 60 198C60 199.1 59.7 200 59.3 200C58.4 200 56 204.8 56 206.6C56 207.2 55.1 208 54 208.3C52.5 208.7 52 209.7 52 212.2C52 214.4 51.4 215.9 50 216.8C48.7 217.6 48 219.1 48 221C48 223.3 47.6 224 46 224C44.9 224 44 224.6 44 225.3C44 226.1 43.4 228 42.6 229.6C41.8 231.2 40.4 234.2 39.5 236.2C38.5 238.3 37.4 240 36.9 240C36.4 240 36 240.9 36 242C36 243.1 35.6 244 35.2 244C34.7 244 33.7 245.9 33 248.2C32.2 250.6 31.3 252.9 31 253.5C30.6 254 29.7 256.6 28.9 259.2C28.2 261.9 27.3 264 26.9 264C26.6 264 25.7 266.1 25 268.7C24.4 271.4 23.2 274.7 22.5 276.1C20.4 280 18.4 286.5 16 297.5C14.8 303 13 309.3 12 311.6C11 313.8 9.69999 319.2 8.99999 323.6C8.39999 327.9 6.69999 338.4 5.39999 346.8C0.699989 375.9 0.699989 373 0.299989 566.7C-0.100011 762.2 0.0999893 772.7 4.49999 799.5C5.29999 804.4 6.69999 813.4 7.49999 819.5C8.89999 829.5 10.3 835.2 14.6 849.2C15.4 851.8 16 854.7 16 855.8C16 859.6 21.9 876 23.2 876C23.7 876 24 877.4 24 879.2C24 880.9 24.8 884.2 25.9 886.4C26.9 888.7 29 893.6 30.5 897.5C34.1 906.6 36.3 911.4 37 912C38 912.9 44 925.3 44 926.4C44 927 44.9 928.1 46 928.8C47.1 929.5 48 931.1 48 932.4C48 934 48.7 935.1 50 935.5C51.4 935.9 52 937 52 939.1C52 940.9 52.7 942.4 54 943.2C55.1 943.9 56 945.4 56 946.6C56 947.7 56.9 949.6 58 950.8C59.1 952 60 953.6 60 954.5C60 955.3 60.5 956 61 956C61.6 956 62 956.9 62 958C62 959.1 62.5 960 63 960C63.6 960 64 960.9 64 962C64 963.1 64.5 964 65 964C65.6 964 66 964.7 66 965.6C66 966.5 67.4 968.6 69 970.2C70.7 971.7 72 973.7 72 974.5C72 975.3 72.4 976 72.8 976C73.2 976 74.3 977.2 75.2 978.7C76.1 980.3 78.8 983.5 81.1 986C83.4 988.5 86.4 992.1 87.9 994C89.3 995.9 90.7 997.7 91 998C91.3 998.3 94 1001.4 97 1005C100 1008.6 102.7 1011.7 103 1012C103.3 1012.3 105.7 1015.2 108.2 1018.5C115.5 1028 127.8 1040.2 136 1046C137.8 1047.4 140.9 1050 142.7 1051.7C144.6 1053.5 146.5 1055 147 1055C147.5 1055 150 1057 152.4 1059.5C154.9 1062 157.4 1064 157.9 1064C158.5 1064 160.6 1065.7 162.7 1067.8C164.8 1069.8 168.5 1073.1 171 1075C173.5 1076.9 176.9 1079.7 178.5 1081.2C180.2 1082.7 182.1 1084 182.8 1084C183.4 1084 184 1084.4 184 1085C184 1085.5 184.9 1086 186 1086C187.1 1086 188 1086.4 188 1087C188 1087.5 188.6 1088 189.4 1088C190.8 1088 199.1 1092 200 1093.1C200.5 1093.7 211.6 1099.7 230.5 1109.6C234.4 1111.6 238.6 1114 240 1115C242.5 1116.7 260.6 1124.2 271.1 1127.9C274.1 1128.9 279.7 1130.9 283.5 1132.3C287.4 1133.7 294.9 1135.8 300.3 1136.9C305.8 1138.1 311 1139.5 312 1140C314.7 1141.4 320.7 1142.6 342.5 1146C383.2 1152.2 376.6 1152 571.6 1152C688.3 1152 755.2 1151.6 765.6 1150.9C790.5 1149.2 824.4 1143.8 849.4 1137.6C861.4 1134.5 872.8 1131.2 874.7 1130C876.6 1128.9 879 1128 880 1128C881.1 1128 884.3 1126.9 887.2 1125.6C890.1 1124.3 893.6 1122.9 895 1122.5C897.9 1121.7 924.9 1108.3 926.8 1106.8C927.5 1106.2 927.8 1104.9 927.4 1103.8C926.9 1102.1 927 1102 928.9 1103.2C930.7 1104.3 931.8 1104 937.2 1101.1C940.7 1099.2 945.3 1096.8 947.5 1095.7C949.7 1094.6 951.7 1093.4 951.8 1092.9C952 1092.4 953 1092 954.1 1092C955.1 1092 956 1091.7 956 1091.2C956 1090.8 957.5 1089.9 959.3 1089.2C965.9 1086.4 967.6 1085.5 970.3 1082.8C971.8 1081.2 973.7 1080 974.4 1080C975.2 1080 976 1079.7 976.2 1079.2C976.4 1078.8 978.5 1076.9 981 1075C983.5 1073.1 987.3 1069.8 989.5 1067.8C991.7 1065.7 993.8 1064 994.3 1064C994.7 1064 997.1 1062 999.6 1059.5C1002 1057 1004.4 1055 1004.8 1055C1005.2 1055 1007.3 1053.4 1009.3 1051.5C1011.3 1049.6 1013.4 1048 1014 1048C1014.5 1048 1015.4 1047.1 1016 1046C1016.6 1044.9 1017.5 1044 1018 1044C1019.9 1044 1034.8 1029.9 1041 1022.2C1042.9 1019.8 1045.3 1017.1 1046.3 1016.2C1047.2 1015.3 1048 1014.2 1048 1013.8C1048 1013.3 1050 1010.9 1052.5 1008.2C1055 1005.6 1057 1003.2 1057 1002.8C1057 1002.4 1058.6 1000.5 1060.5 998.6C1062.4 996.6 1064 994.6 1064 994.1C1064 993.5 1065.7 991.4 1067.8 989.3C1069.9 987.2 1072.7 983.9 1074 982C1075.3 980.1 1077.2 977.8 1078.2 976.9C1079.2 976 1080 974.9 1080 974.4C1080 973.9 1081.4 972.1 1083 970.3C1084.7 968.5 1086 966.4 1086 965.6C1086 964.7 1086.5 964 1087 964C1087.6 964 1088 963.1 1088 962C1088 960.9 1088.5 960 1089 960C1089.6 960 1090 959.1 1090 958C1090 956.9 1090.5 956 1091 956C1091.6 956 1092 955.3 1092 954.5C1092 953.6 1092.9 952 1094 950.8C1095.1 949.6 1096 947.7 1096 946.6C1096 945.4 1096.9 943.9 1098 943.2C1099.1 942.5 1100 940.9 1100 939.5C1100 938.1 1100.8 936.6 1102.1 935.9C1103.8 935.1 1104.1 934.1 1103.8 931.4C1103.6 929.4 1103.8 928.1 1104.5 928.1C1107 928.4 1107.8 927.8 1108.3 925.1C1108.6 923.5 1109.5 921.6 1110.3 920.9C1111 920.1 1112 918.3 1112.3 916.8C1112.7 915.3 1113.7 913.5 1114.5 912.6C1115.3 911.8 1116 910.4 1116 909.6C1116 908.7 1116.5 908 1117 908C1117.6 908 1118 907.1 1118 906C1118 904.9 1118.5 904 1119 904C1119.6 904 1120 903.4 1120 902.6C1120 901.2 1122.7 893.9 1126.1 886.3C1127.2 883.9 1128 881.5 1128 880.9C1128 880.3 1129.5 875.9 1131.4 871.1C1133.3 866.4 1135.1 860.7 1135.5 858.5C1136.5 852.3 1139.1 841.7 1140.1 839.8C1141.8 836.6 1147.7 800.2 1150.2 778C1151.8 762.5 1152.6 417.7 1151 390C1150 372 1146.2 340.7 1142.9 322.5C1142.4 319.2 1140.5 312.5 1138.9 307.6C1137.3 302.7 1136 297.6 1136 296.4C1136 293.6 1131.8 280.5 1129.6 276.1C1128.7 274.5 1128 272.3 1128 271.4C1128 270.4 1127.1 267.6 1125.9 265.1C1124.8 262.6 1123 258.6 1121.9 256.2C1120.9 253.9 1120 251.4 1120 250.7C1120 248.9 1117.6 244 1116.8 244C1116.3 244 1116 243.3 1116 242.5C1116 241.7 1115.1 240.1 1114 239C1112.9 237.9 1112 235.9 1112 234.5C1112 233.1 1111.6 232 1111.1 232C1110.6 232 1109.5 230.2 1108.6 228C1107.7 225.8 1106.6 224 1106 224C1105.5 224 1104.7 222.8 1104.4 221.3C1104 219.8 1102.8 217.7 1101.8 216.6C1100.8 215.5 1100 213.9 1100 213C1100 212.1 1099.2 210.5 1098.2 209.4C1097.2 208.3 1096 206.2 1095.7 204.8C1095.3 203.3 1094.3 201.5 1093.5 200.6C1092.7 199.8 1092 198.4 1092 197.6C1092 196.7 1091.6 196 1091 196C1090.5 196 1090 195.1 1090 194C1090 192.9 1089.6 192 1089 192C1088.5 192 1088 191.3 1088 190.5C1088 189.6 1087.5 188.4 1086.9 187.7C1086 186.6 1084.5 184.3 1080.8 178.5C1080.1 177.4 1079.3 176.3 1079 176C1078.7 175.7 1076.8 173.4 1074.7 170.8C1072.6 168.2 1070.3 165.5 1069.7 164.8C1068.1 163.2 1050.4 141.6 1047 137.1C1038.4 125.9 1020.7 108 1018.1 108C1017.5 108 1016.6 107.1 1016 106C1015.4 104.9 1014.3 104 1013.5 104C1012.8 104 1012 103.7 1011.8 103.2C1011.7 102.8 1009 100.5 1006 97.9999C1003 95.4999 1000.3 93.2999 1000 92.9999C999.7 92.6999 997 90.4999 994 87.9999C991 85.4999 987.9 82.9999 987.2 82.2999C986.5 81.5999 983.8 79.3999 981.2 77.2999C978.6 75.1999 976.4 73.1999 976.2 72.6999C976 72.2999 975.3 71.9999 974.6 71.9999C974 71.9999 972.7 71.1999 971.8 70.1999C968.7 66.9999 963.8 63.9999 961.5 63.9999C960.7 63.9999 960 63.4999 960 62.9999C960 62.3999 959.1 61.9999 958 61.9999C956.9 61.9999 956 61.4999 956 60.9999C956 60.3999 955.1 59.9999 954 59.9999C952.9 59.9999 952 59.5999 952 59.0999C952 58.5999 950.3 57.4999 948.3 56.5999C946.2 55.6999 942.3 53.6999 939.5 51.9999C936.8 50.3999 930.5 46.9999 925.7 44.4999C920.9 41.8999 914.8 38.5999 912.2 37.0999C908.3 34.7999 894.5 29.0999 878 22.9999C869 19.6999 856.8 15.9999 849.5 14.3999C845.1 13.4999 840.7 12.2999 839.8 11.7999C834.7 9.29993 793.2 3.29993 768 1.49993C738.8 -0.600066 406 -0.400066 381 1.59993ZM581.9 293.9C584.5 296.6 589.4 303.9 592.9 310.1C596.5 316.4 601.4 324.7 603.9 328.6C606.5 332.4 612.1 341.6 616.5 348.8C620.9 356.1 629.9 370.7 636.6 381.3C643.2 391.9 653.1 407.9 658.5 417C668.4 433.6 675.4 445.3 690.5 470C705.4 494.4 738.2 552.3 743.5 563.5C748.4 573.9 758.4 599.7 760.9 608.5C761.9 612 764.2 628.5 767.1 652.5C769.2 670.6 762.1 715.6 753.6 738.4C749.1 750.2 736.2 773.3 727.7 784.6C713.5 803.4 693 823 676.5 833.5C647.9 851.8 610.3 863.1 577.5 863.3C557 863.3 530.1 858.4 506.6 850.1C498.6 847.3 472.2 831.8 463.1 824.6C453 816.7 435 798.6 426.6 788C418.1 777.3 411.9 766.9 404.1 750.2C393.4 727.4 389.6 713 385.9 681.4C383.6 660.9 383.5 662.1 389.1 620C390.1 612.2 396.6 592 403 576.5C405.1 571.5 408 564.6 409.4 561C410.9 557.4 412.7 553.4 413.4 552C414.2 550.6 416.8 546.1 419.1 542C421.4 537.9 423.9 533.8 424.6 533C425.3 532.2 431.6 521.4 438.8 509C445.9 496.6 457.4 477 464.5 465.5C471.5 453.9 483.7 433.9 491.5 421C506.4 396.3 526.2 364.2 544.6 335C550.7 325.4 558.3 313 561.4 307.6C567.2 297.8 574.2 289 576.3 289C576.9 289 579.4 291.2 581.9 293.9Z" fill="black"/>
</svg>
