<svg width="1008" height="1296" viewBox="0 0 1008 1296" fill="none" xmlns="http://www.w3.org/2000/svg">
<path d="M113 0.699987C94.9 3.69999 86.9 5.49999 83.8 7.09999C82.8 7.59999 80.9 7.99999 79.4 7.99999C76.6 7.99999 73.6 9.39999 70.8 12C69.8 12.9 68 14.1 66.7 14.7C59.8 17.7 55.2 20.3 52.6 22.5C51 23.9 49.3 25 48.9 25C47.6 25 28 44.4999 28 45.7999C28 46.3999 27.1 47.3999 26 47.9999C24.9 48.5999 24 49.6999 24 50.4999C24 51.2999 23.6 51.9999 23.2 51.9999C22.8 51.9999 21.3 53.7999 20 55.9999C18.6 58.1999 17.2 59.9999 16.8 59.9999C16.3 59.9999 16 61.4999 16 63.1999C16 65.3999 15.1 67.4999 13.1 69.4999C9.2 73.6999 8 76.2999 8 80.3999C8 82.3999 7.6 83.9999 7.1 83.9999C6.6 83.9999 5.6 86.5999 5 89.6999C4.4 92.8999 3.4 97.2999 2.9 99.4999C2.4 101.7 1.6 106.2 1 109.4C0.3 113.4 0 221.6 0 433.4C0.1 716 0.2 752.2 1.6 758C2.5 761.6 3.5 766.5 3.9 769C4.3 771.5 5.4 775 6.3 776.9C7.2 778.8 8 781.5 8 783C8 786.4 9.9 792 11.1 792C11.6 792 12 792.7 12 793.5C12 794.4 12.9 796 14 797.2C15.1 798.4 16 800 16 800.7C16 802.4 22.2 812 23.2 812C23.7 812 24 812.7 24 813.6C24 815.5 48.5 840 50.4 840C51.2 840 52 840.4 52.2 840.8C52.7 842 61.1 847.5 64.8 848.9C66.5 849.7 68 850.6 68 851.1C68 851.6 68.9 852 70 852C71.1 852 72 852.4 72 852.9C72 854 74.2 855 79 856C80.9 856.5 86.3 857.8 91 859C111.8 864.2 105.6 864 239.2 864H363.9L377.7 861.4C385.3 860 392.8 858.2 394.4 857.4C396 856.7 398.8 856 400.7 856C402.5 856 404 855.5 404 855C404 854.4 404.5 854 405 854C405.6 854 407.9 852.8 410.3 851.3C412.6 849.8 415.2 848.5 416.1 848.4C417.8 848.3 427.3 842.2 427.8 840.8C428 840.4 428.8 840 429.6 840C431.3 840 453 818.7 453 817.1C453 816.5 453.7 816 454.5 816C455.3 816 456 815.1 456 814C456 812.9 456.4 812 456.8 812C457.2 812 458.7 810.2 460 808C461.4 805.8 462.8 804 463.3 804C463.7 804 464 803 464 801.7C464 800.4 464.9 798.4 466 797.2C467.1 796 468 794.6 468 794C468 793.4 468.9 792 470 790.8C471.3 789.4 472 787.2 472 784.9C472 782.8 472.4 780.9 472.9 780.6C473.4 780.3 474 778.8 474.3 777.3C474.6 775.7 475.9 770.2 477.1 765L479.4 755.5L479.7 435.5C480.1 96.5999 480.2 110 475.9 93.4999C475.3 91.2999 474.6 88.4999 474.3 87.1999C474 85.9999 473.4 84.6999 472.9 84.3999C472.4 84.0999 472 82.3999 472 80.5999C472 77.1999 470 71.9999 468.8 71.9999C468.3 71.9999 468 71.0999 468 69.9999C468 68.8999 467.6 67.9999 467.2 67.9999C466.7 67.9999 465.5 66.1999 464.5 63.9999C463.5 61.6999 461.6 58.6999 460.4 57.2999C459.2 55.8999 457.6 53.4999 456.9 52.0999C455.1 48.4999 454.5 47.9 443.3 36.2C437.9 30.6 432.8 25.7 431.8 25.5C430.9 25.2 428.7 23.7 427 22.1C425.2 20.6 422.2 18.5 420.1 17.6C418.1 16.6 415.4 15.1 414 14.3C412.6 13.5 410.7 12.6 409.8 12.3C408.8 12 408 11.4 408 10.9C408 10.4 407.3 9.99999 406.5 9.99999C405.7 9.99999 404.2 9.59999 403.2 9.09999C400.7 7.69999 387.8 4.29999 378 2.29999C370.3 0.799987 357.4 0.599987 242.5 0.399987C172.7 0.299987 114.4 0.399987 113 0.699987ZM350.5 290.8C360 294.2 365.6 297.5 372.8 304.4C382.4 313.5 384.7 319.3 386 338.4C387.1 353.4 385.4 475.2 384 487.5C382.1 504.1 374.3 514.8 358.5 522.6C352.7 525.5 349.1 526.5 341.9 527.3C324.5 529.3 311.6 524.9 299.9 513.1C294.2 507.3 292.7 505 290.8 499.3L288.5 492.5L288.2 414C288 362.6 288.2 332.7 288.9 327.5C290.4 316.8 294.4 308.7 301.6 302.1C316.7 288.3 332.7 284.6 350.5 290.8Z" fill="black"/>
<path d="M641 0.700077C622.9 3.70008 614.9 5.50008 611.8 7.10008C610.8 7.60008 608.9 8.00008 607.4 8.00008C604.6 8.00008 601.6 9.40008 598.8 12.0001C597.8 12.9001 596 14.1001 594.7 14.7001C587.8 17.7001 583.2 20.3001 580.6 22.5001C579 23.9001 577.3 25.0001 576.9 25.0001C575.6 25.0001 556 44.5001 556 45.8001C556 46.4001 555.1 47.4001 554 48.0001C552.9 48.6001 552 49.7001 552 50.5001C552 51.3001 551.6 52.0001 551.2 52.0001C550.8 52.0001 549.3 53.8001 548 56.0001C546.6 58.2001 545.2 60.0001 544.8 60.0001C544.3 60.0001 544 61.6001 544 63.6001C544 66.3001 543.3 67.9001 541.2 69.8001C537.3 73.4001 536 76.2001 536 80.4001C536 82.4001 535.6 84.0001 535.1 84.0001C534.6 84.0001 533.6 86.6001 533 89.7001C532.4 92.9001 531.4 97.3001 530.9 99.5001C530.4 101.7 529.6 106.4 529 110C528.4 114.3 528 301 528 650C528.1 1126.3 528.2 1184.2 529.6 1190C530.5 1193.6 531.5 1198.5 531.9 1201C532.3 1203.5 533.4 1207 534.3 1208.9C535.2 1210.8 536 1213.5 536 1215C536 1218.4 537.9 1224 539.1 1224C539.6 1224 540 1224.7 540 1225.5C540 1226.4 540.9 1228 542 1229.2C543.1 1230.4 544 1232 544 1232.7C544 1234.4 550.2 1244 551.2 1244C551.7 1244 552 1244.7 552 1245.6C552 1247.5 576.5 1272 578.4 1272C579.2 1272 580 1272.4 580.2 1272.8C580.7 1274 589.1 1279.5 592.8 1280.9C594.5 1281.7 596 1282.6 596 1283.1C596 1283.6 596.9 1284 598 1284C599.1 1284 600 1284.4 600 1284.9C600 1286 602.2 1287 607 1288C608.9 1288.5 614.3 1289.8 619 1291C639.8 1296.2 633.6 1296 767.2 1296H891.9L905.7 1293.4C913.3 1292 920.8 1290.2 922.4 1289.4C924 1288.7 926.8 1288 928.7 1288C930.5 1288 932 1287.5 932 1287C932 1286.4 932.5 1286 933 1286C933.6 1286 935.9 1284.8 938.3 1283.3C940.6 1281.8 943.2 1280.5 944.1 1280.4C945.8 1280.3 955.3 1274.2 955.8 1272.8C956 1272.4 956.8 1272 957.6 1272C959.3 1272 981 1250.8 981 1249.1C981 1248.5 981.7 1248 982.5 1248C983.3 1248 984 1247.3 984 1246.5C984 1245.6 985.1 1243.8 986.4 1242.5C987.8 1241.2 989.1 1239.1 989.5 1238C989.8 1236.9 990.6 1236 991.1 1236C991.6 1236 992 1235 992 1233.7C992 1232.4 992.9 1230.4 994 1229.2C995.1 1228 996 1226.4 996 1225.5C996 1224.7 996.4 1224 996.8 1224C998.1 1224 1000 1219.3 1000 1216.2C1000 1214.6 1000.5 1212.9 1001 1212.4C1001.6 1211.8 1003.2 1206 1004.8 1199.4L1007.5 1187.5L1007.8 652C1008 253.2 1007.8 114.7 1007 109.5C1004.6 95.2001 1002.5 86.6001 1000.8 84.6001C1000.4 84.0001 1000 82.2001 1000 80.5001C1000 77.2001 998 72.0001 996.8 72.0001C996.3 72.0001 996 71.1001 996 70.0001C996 68.9001 995.6 68.0001 995.2 68.0001C994.7 68.0001 993.5 66.1001 992.4 63.9001C991.4 61.6001 990 59.2001 989.4 58.5001C988.7 57.9001 986.5 54.7001 984.4 51.4001C980.4 45.1001 962.6 26.3001 959.8 25.5001C958.9 25.2001 956.7 23.7001 955 22.1001C953.2 20.6001 950.2 18.5001 948.1 17.6001C946.1 16.6001 943.4 15.1001 942 14.3001C940.6 13.5001 938.7 12.6001 937.8 12.3001C936.8 12.0001 936 11.4001 936 10.9001C936 10.4001 935.3 10.0001 934.5 10.0001C933.7 10.0001 932.2 9.60008 931.2 9.10008C928.7 7.70008 915.8 4.30008 906 2.30008C898.3 0.800077 885.4 0.600077 770.5 0.400077C700.7 0.300077 642.4 0.400077 641 0.700077ZM683.6 289.6C696 293.1 703 297.2 710.3 304.9C721.8 317.1 722.1 320.3 721 420C720.2 500.4 720.4 497.9 713.5 507.2C711.6 509.8 707.5 514 704.4 516.4C693.7 524.8 684.2 528 670.2 528C655.9 528 645.8 523.7 634.8 513C626 504.3 625.1 501.5 624 475.5C622.8 450.9 623.6 332.7 625 324.6C626.4 315.8 630.2 309 637.3 302.3C647.1 293.2 660.1 287.2 670.6 287.1C672.9 287 678.8 288.2 683.6 289.6Z" fill="black"/>
</svg>
