<svg width="1536" height="1536" viewBox="0 0 1536 1536" fill="none" xmlns="http://www.w3.org/2000/svg">
<path d="M532.5 0.599879C531.4 0.799879 519.9 1.59988 507 2.49988C483.4 3.99988 437.4 10.1999 426 13.3999C423 14.2999 412.2 16.9999 402 19.4999C384.7 23.7999 380.6 24.9999 375.5 26.9999C366.8 30.4999 334.9 41.9999 334 41.9999C333 41.9999 329 43.9999 328 44.9999C327.7 45.2999 326.4 45.9999 325 46.5999C318.7 49.2999 308.5 54.5999 308.2 55.1999C308 55.6999 307.1 55.9999 306.2 55.9999C305.3 55.9999 301.1 57.7999 297 59.9999C292.9 62.1999 289 63.9999 288.4 63.9999C287.4 63.9999 274.4 71.7999 262 79.7999C259 81.7999 253.8 84.8999 250.5 86.7999C247.2 88.5999 242.5 91.6999 240 93.4999C197.5 125 181.6 138.3 159 161C145.8 174.1 120.8 201.9 118.6 205.8C118.1 206.6 115.9 209.6 113.8 212.4C107.1 221 97.7 233.7 94.5 238.2C91.9 242 76.8 266.3 72.9 273C72.1 274.4 71.3 275.7 71 276C70.5 276.5 69.6 278.1 66.3 284.5C59.5 297.6 56 305 56 306.3C56 307.2 55.7 308 55.3 308.2C54.2 308.6 48 321 48 322.6C48 323.4 47.6 324 47 324C46.5 324 46 324.9 46 326C46 327.1 45.6 328 45.2 328C44.8 328 43.8 329.7 43.1 331.7C40.9 338.3 36 351.4 35 353.5C34.5 354.6 32.7 359.8 31 365C29.2 370.2 27.5 375 27 375.6C26.5 376.1 25.4 379.3 24.6 382.6C23.8 385.8 21 396.6 18.5 406.5C11.4 433.9 10.2 439.5 8.5 452.5C7.6 459.1 6 469.7 5 476C0.3 504 0 523.8 0 769.4C0 989.6 0.1 1000.8 2 1027.5C3.1 1042.9 4.7 1059.1 5.5 1063.5C6.3 1067.9 7.7 1077.1 8.5 1084C10.2 1097 11.3 1103.1 13.7 1111.5C14.5 1114.2 16.2 1121 17.6 1126.5C18.9 1132 20.9 1139.4 21.9 1143C23 1146.6 24.2 1151.1 24.5 1153C24.8 1154.9 25.7 1157.8 26.5 1159.4C27.3 1160.9 28 1162.6 28 1163.2C28 1163.7 28.9 1166 30 1168.2C31.1 1170.5 32 1173.2 32 1174.2C32 1175.2 32.5 1176.9 33 1178C33.6 1179.1 34.5 1180.9 35 1182C35.6 1183.1 36 1184.6 36 1185.3C36 1187.1 38.3 1192 39.3 1192C39.7 1192 40 1193.8 40 1196C40 1198.2 40.5 1200 41 1200C41.6 1200 42 1200.9 42 1202C42 1203.1 42.5 1204 43 1204C43.6 1204 44 1204.9 44 1206C44 1207.1 44.5 1208 45 1208C45.6 1208 46 1208.9 46 1210C46 1211.1 46.5 1212 47 1212C47.6 1212 48 1212.7 48 1213.6C48 1215.3 54.1 1227.3 55.3 1227.8C55.7 1228 56 1229 56 1230C56 1231.8 57.9 1237 59 1238C59.6 1238.6 61.9 1242.7 63 1245C64.9 1249.2 70.4 1259.6 70.9 1260C71.5 1260.5 72.6 1262.4 75.4 1267.5C76 1268.6 76.7 1269.7 77 1270C77.3 1270.3 79.6 1273.9 82 1278C89.9 1291.3 113.6 1325.2 117 1328C117.3 1328.3 118.7 1330.1 120 1332C121.3 1333.9 122.7 1335.7 123 1336C123.3 1336.3 124.8 1338.1 126.4 1340C139.9 1356.7 177.2 1394.2 194 1408C197 1410.5 199.7 1412.7 200 1413.1C200.3 1413.4 205.6 1417.3 211.8 1421.8C217.9 1426.3 228 1433.6 234.1 1438.1C240.2 1442.6 252.1 1450.4 260.4 1455.5C268.7 1460.5 277.3 1465.8 279.5 1467.2C283.4 1469.6 300 1477.8 319 1486.8C328.9 1491.5 353.3 1501.2 361 1503.5C363.5 1504.2 368.4 1506 372 1507.5C382.8 1511.9 425.3 1522.9 443 1525.9C476.7 1531.5 485.1 1532.5 520 1535C542 1536.6 1010.9 1535.8 1030.2 1534.2C1045.6 1532.8 1086.9 1527 1101.5 1524.1C1118.8 1520.7 1157.9 1510.3 1166.1 1506.9C1171.3 1504.8 1176 1503 1176.5 1503C1176.9 1503 1181.3 1501.4 1186.2 1499.5C1191.1 1497.5 1198 1495 1201.6 1493.8C1205.1 1492.7 1208 1491.3 1208 1490.9C1208 1490.4 1208.9 1490 1210 1490C1211.1 1490 1212 1489.5 1212 1489C1212 1488.4 1212.7 1488 1213.6 1488C1215.3 1488 1227.3 1481.9 1227.8 1480.7C1228 1480.3 1229.2 1480 1230.5 1480C1231.8 1480 1234.9 1478.6 1237.3 1477C1239.8 1475.3 1242.3 1474 1242.9 1474C1243.5 1474 1244 1473.5 1244 1473C1244 1472.4 1245.1 1472 1246.4 1472C1247.8 1472 1250.9 1470.6 1253.3 1469C1255.8 1467.3 1258.3 1466 1258.9 1466C1259.5 1466 1260 1465.5 1260 1465C1260 1464.4 1260.9 1464 1262 1464C1263.1 1464 1264 1463.6 1264 1463.2C1264 1462.7 1265.2 1461.7 1266.8 1460.9C1268.3 1460.1 1270.2 1458.7 1271.1 1457.8C1272 1456.8 1273.2 1456 1273.8 1456C1276.3 1456 1297.8 1442 1310.1 1432.6C1313.7 1429.8 1317.7 1426.7 1319.1 1425.8C1325.5 1421.2 1335.6 1413.7 1336 1413.1C1336.3 1412.8 1339.4 1410 1343 1407C1346.6 1404 1351.9 1399.2 1354.9 1396.3C1357.8 1393.4 1360.6 1391 1360.9 1391C1361.8 1391 1387.9 1364.6 1394.1 1357.5C1396.5 1354.8 1399.6 1351.4 1401 1350C1402.4 1348.6 1405.5 1345 1408 1342C1410.5 1339 1413.5 1335.4 1414.7 1334C1416 1332.6 1417 1331.2 1417 1330.9C1417 1330.6 1418.3 1328.7 1420 1326.9C1421.6 1325 1423 1323.2 1423 1322.8C1423 1322.4 1423.6 1321.5 1424.3 1320.8C1429.5 1315.4 1452 1283.1 1452 1281C1452 1280.5 1452.3 1280 1452.8 1280C1453.2 1280 1454.1 1278.5 1454.9 1276.7C1455.7 1275 1457 1272.6 1457.9 1271.5C1458.8 1270.4 1460.2 1268.3 1461 1266.7C1461.7 1265.2 1462.7 1264 1463.2 1264C1463.6 1264 1464 1263.1 1464 1262.1C1464 1261 1464.3 1260 1464.7 1259.8C1466.3 1259.1 1472 1248.7 1472 1246.5C1472 1245.2 1472.3 1244 1472.8 1243.8C1474.1 1243.2 1480 1232.9 1480 1231.1C1480 1230.2 1480.4 1229 1480.9 1228.5C1482.8 1226.3 1488 1215.7 1488 1213.9C1488 1212.9 1488.5 1212 1489 1212C1489.6 1212 1490 1211.1 1490 1210C1490 1208.9 1490.3 1208 1490.8 1208C1491.8 1208 1494.1 1202.3 1501.6 1180.5C1502.5 1177.7 1505 1171.2 1507.1 1166C1511.5 1154.8 1526.6 1094.6 1527.5 1084.5C1527.8 1080.6 1528.9 1072.3 1530 1066C1531.9 1054.5 1533 1043.1 1535 1009.5C1535.8 996.8 1536 921.7 1535.8 756.5C1535.4 548.1 1535.2 519.2 1533.7 501.5C1532.8 490.6 1531.8 480.4 1531.5 479C1531.2 477.6 1529.7 467.5 1528.1 456.5C1524.6 433.3 1511.9 381.1 1507 370.4C1505.4 366.7 1504 363.1 1504 362.3C1504 360.5 1494.7 336.1 1491.2 328.5C1489.6 325.2 1487.3 320.1 1485.9 317.3C1484.6 314.4 1483.2 312 1482.8 312C1482.3 312 1482 311.1 1482 310C1482 308.9 1481.6 308 1481 308C1480.5 308 1480 307.3 1480 306.5C1480 304.9 1468.9 282.6 1464.3 274.9C1462.7 272.4 1458.8 265.9 1455.6 260.4C1446.9 245.9 1443.2 240.6 1426.7 218.5C1408.2 193.7 1397.4 181.3 1374 157.9C1361.9 145.8 1352.5 137.1 1340.5 126.9C1338.3 125 1336.3 123.2 1336 122.9C1335.7 122.6 1332.4 120 1328.5 117.2C1324.7 114.4 1321.1 111.7 1320.5 111.3C1306.4 100.2 1282.9 83.9999 1281 83.9999C1280.5 83.9999 1280 83.4999 1280 82.9999C1280 82.3999 1279.1 81.9999 1278 81.9999C1276.9 81.9999 1276 81.4999 1276 80.9999C1276 80.3999 1275.3 79.9999 1274.4 79.9999C1273.5 79.9999 1272 79.1999 1271.1 78.1999C1270.2 77.1999 1267.4 75.2999 1264.8 73.9999C1262.1 72.5999 1260 71.2999 1260 70.9999C1260 70.6999 1257 68.9999 1253.2 67.0999C1249.5 65.1999 1245.4 63.0999 1244 62.2999C1223.3 51.2999 1186.1 35.1999 1173 31.4999C1170.5 30.7999 1165.6 29.0999 1162 27.6999C1151.6 23.4999 1101.5 11.1999 1086.3 8.99988C1078.7 7.89988 1068.2 6.39988 1063 5.49988C1057.8 4.69988 1040.5 3.09988 1024.5 1.99988C996.9 0.0998795 984.2 -0.000120543 765 0.199879C638.2 0.199879 533.6 0.399879 532.5 0.599879ZM530.5 387.4C540.5 390.6 547.1 394.4 554.4 401.1C568.1 413.6 573.5 426.2 575.9 451.5C577.3 466.4 578.1 613.1 576.9 632.6C575.2 659.1 571.1 670 557.5 683.5C543.2 697.9 533 703 517.3 703.8C486.5 705.3 457.7 684.4 450.5 655.5C449.7 652.2 448.6 645.7 448.1 641C446.7 628.9 446.4 445 447.8 438.5C450.8 424.1 459.2 410.2 470.4 400.9C478.3 394.4 493.1 386.4 500 385C507.6 383.5 521.6 384.6 530.5 387.4ZM1038.2 385.9C1050.7 389.1 1059.4 394.1 1068.5 403.4C1080.5 415.5 1084.3 423.9 1087.6 445C1089.1 453.9 1089.4 467.3 1089.7 535.5C1090.3 639.4 1089.4 653 1080.8 669.3C1076.8 677 1062.8 691.1 1054.5 696C1036.6 706.6 1016.6 706.7 995.2 696.4C984.2 691.1 972.7 679.5 967.2 668C958.9 650.9 958.4 642.6 958.5 526.5C958.5 450.7 958.7 443.9 960.4 437C965.3 416.8 978 401.2 998.1 390.5C1010.8 383.8 1024 382.3 1038.2 385.9ZM793.3 898.1C821.4 901 855.6 913.5 879.9 929.7C904.7 946.2 923.8 968.6 939.1 999.2C956.1 1033 961.5 1064.4 961.4 1128.5C961.4 1167.5 960.9 1171.9 955.5 1183.8C950.7 1194.3 939.9 1205.5 929.3 1210.9C920.9 1215.1 914.5 1216.1 888.5 1217C854.3 1218.2 660.1 1218.2 641.9 1217C616.9 1215.3 603.7 1210.5 591.9 1199C577.4 1184.8 574.1 1168.5 574 1111.5C574 1075.1 577.1 1051 585 1027.1C601.3 978 631.4 941.9 675.1 919.2C712.6 899.6 747.7 893.4 793.3 898.1Z" fill="black"/>
</svg>
